<?xml version="1.0" encoding="utf-8"?>
<!-- Generated by IcoMoon.io -->
<!DOCTYPE svg PUBLIC "-//W3C//DTD SVG 1.1//EN" "http://www.w3.org/Graphics/SVG/1.1/DTD/svg11.dtd">
<svg version="1.1" xmlns="http://www.w3.org/2000/svg" xmlns:xlink="http://www.w3.org/1999/xlink" width="18" height="18" viewBox="0 0 18 18">
<path fill="#444444" d="M12.75 3h-6.75c-0.413 0-0.75 0.337-0.75 0.75v9c0 0.413 0.337 0.75 0.75 0.75h2.625c0 0.415 0.336 0.75 0.75 0.75s0.75-0.335 0.75-0.75h2.625c0.413 0 0.75-0.338 0.75-0.75v-9c0-0.413-0.338-0.75-0.75-0.75zM12.75 12.75h-6.75v-9h6.75v9z"></path>
<path fill="#444444" d="M13.5 0.75h-8.25c-1.241 0-2.25 1.009-2.25 2.25v11.25c0 1.241 1.009 2.25 2.25 2.25h8.25c1.241 0 2.25-1.009 2.25-2.25v-11.25c0-1.241-1.009-2.25-2.25-2.25zM14.25 14.25c0 0.413-0.337 0.75-0.75 0.75h-8.25c-0.413 0-0.75-0.337-0.75-0.75v-11.25c0-0.413 0.337-0.75 0.75-0.75h8.25c0.413 0 0.75 0.337 0.75 0.75v11.25z"></path>
</svg>
