<?xml version="1.0" encoding="utf-8"?>
<!-- Generated by IcoMoon.io -->
<!DOCTYPE svg PUBLIC "-//W3C//DTD SVG 1.1//EN" "http://www.w3.org/Graphics/SVG/1.1/DTD/svg11.dtd">
<svg version="1.1" xmlns="http://www.w3.org/2000/svg" xmlns:xlink="http://www.w3.org/1999/xlink" width="20" height="20" viewBox="0 0 20 20">
<path fill="#444444" d="M10 0.833q1.868 0 3.564 0.726t2.923 1.953 1.953 2.923 0.726 3.564-0.726 3.564-1.953 2.923-2.923 1.953-3.564 0.726-3.564-0.726-2.923-1.953-1.953-2.923-0.726-3.564 0.726-3.564 1.953-2.923 2.923-1.953 3.564-0.726zM10 2.5q-1.523 0-2.913 0.596t-2.393 1.598-1.598 2.393-0.596 2.913 0.596 2.913 1.598 2.393 2.393 1.598 2.913 0.596 2.913-0.596 2.393-1.598 1.598-2.393 0.596-2.913-0.596-2.913-1.598-2.393-2.393-1.598-2.913-0.596zM10 6.667q1.38 0 2.357 0.977t0.977 2.357-0.977 2.357-2.357 0.977-2.357-0.977-0.977-2.357 0.977-2.357 2.357-0.977zM10 8.333q-0.69 0-1.178 0.488t-0.488 1.178 0.488 1.178 1.178 0.488 1.178-0.488 0.488-1.178-0.488-1.178-1.178-0.488z"></path>
</svg>
