<?xml version="1.0" encoding="utf-8"?>
<!-- Generated by IcoMoon.io -->
<!DOCTYPE svg PUBLIC "-//W3C//DTD SVG 1.1//EN" "http://www.w3.org/Graphics/SVG/1.1/DTD/svg11.dtd">
<svg version="1.1" xmlns="http://www.w3.org/2000/svg" xmlns:xlink="http://www.w3.org/1999/xlink" width="18" height="18" viewBox="0 0 18 18">
<path fill="#444444" d="M4.225 5.725l4.775-4.775 4.775 4.775q0.973 0.973 1.474 2.215t0.501 2.561q0 1.324-0.501 2.561t-1.474 2.209-2.215 1.477-2.561 0.504-2.561-0.504-2.215-1.477q-0.967-0.973-1.471-2.212t-0.504-2.558 0.504-2.561 1.471-2.215zM12.715 6.785l-3.715-3.715-3.715 3.715q-0.75 0.756-1.143 1.723t-0.393 1.992 0.39 1.989 1.146 1.72 1.723 1.148 1.992 0.393q1.031 0 1.995-0.393t1.72-1.148 1.146-1.717 0.39-1.992q0-1.025-0.39-1.992t-1.146-1.723z"></path>
</svg>
