<?xml version="1.0" encoding="utf-8"?>
<!-- Generated by IcoMoon.io -->
<!DOCTYPE svg PUBLIC "-//W3C//DTD SVG 1.1//EN" "http://www.w3.org/Graphics/SVG/1.1/DTD/svg11.dtd">
<svg version="1.1" xmlns="http://www.w3.org/2000/svg" xmlns:xlink="http://www.w3.org/1999/xlink" width="20" height="20" viewBox="0 0 20 20">
<path fill="#444444" d="M7.5 1.667h5q1.035 0 1.768 0.732t0.732 1.768v4.167h1.667q1.035 0 1.768 0.732t0.732 1.768v3.333q0 1.035-0.732 1.768t-1.768 0.732h-1.81q-0.26 0.736-0.905 1.201t-1.452 0.465h-5q-0.807 0-1.452-0.465t-0.905-1.201h-1.81q-1.035 0-1.768-0.732t-0.732-1.768v-3.333q0-1.035 0.732-1.768t1.768-0.732h1.667v-4.167q0-1.035 0.732-1.768t1.768-0.732zM12.5 15h-5q-0.345 0-0.589 0.244t-0.244 0.589 0.244 0.589 0.589 0.244h5q0.345 0 0.589-0.244t0.244-0.589-0.244-0.589-0.589-0.244zM16.667 10h-13.333q-0.345 0-0.589 0.244t-0.244 0.589v3.333q0 0.345 0.244 0.589t0.589 0.244h1.81q0.26-0.736 0.905-1.201t1.452-0.465h5q0.807 0 1.452 0.465t0.905 1.201h1.81q0.345 0 0.589-0.244t0.244-0.589v-3.333q0-0.345-0.244-0.589t-0.589-0.244zM12.5 3.333h-5q-0.345 0-0.589 0.244t-0.244 0.589v4.167h6.667v-4.167q0-0.345-0.244-0.589t-0.589-0.244z"></path>
</svg>
