<?xml version="1.0" encoding="utf-8"?>
<!-- Generated by IcoMoon.io -->
<!DOCTYPE svg PUBLIC "-//W3C//DTD SVG 1.1//EN" "http://www.w3.org/Graphics/SVG/1.1/DTD/svg11.dtd">
<svg version="1.1" xmlns="http://www.w3.org/2000/svg" xmlns:xlink="http://www.w3.org/1999/xlink" width="18" height="18" viewBox="0 0 18 18">
<path fill="#444444" d="M7.5 0.75h3q0.932 0 1.591 0.659t0.659 1.591v0.75h3q0.311 0 0.53 0.22t0.22 0.53-0.22 0.53-0.53 0.22h-0.75v9q0 0.932-0.659 1.591t-1.591 0.659h-7.5q-0.932 0-1.591-0.659t-0.659-1.591v-9h-0.75q-0.311 0-0.53-0.22t-0.22-0.53 0.22-0.53 0.53-0.22h3v-0.75q0-0.932 0.659-1.591t1.591-0.659zM13.5 14.25v-9h-9v9q0 0.311 0.22 0.53t0.53 0.22h7.5q0.311 0 0.53-0.22t0.22-0.53zM10.5 2.25h-3q-0.311 0-0.53 0.22t-0.22 0.53v0.75h4.5v-0.75q0-0.311-0.22-0.53t-0.53-0.22z"></path>
</svg>
