<?xml version="1.0" encoding="utf-8"?>
<!-- Generated by IcoMoon.io -->
<!DOCTYPE svg PUBLIC "-//W3C//DTD SVG 1.1//EN" "http://www.w3.org/Graphics/SVG/1.1/DTD/svg11.dtd">
<svg version="1.1" xmlns="http://www.w3.org/2000/svg" xmlns:xlink="http://www.w3.org/1999/xlink" width="20" height="20" viewBox="0 0 20 20">
<path fill="#444444" d="M4.167 0h11.667q1.035 0 1.768 0.732t0.732 1.768v11.667q0 1.035-0.732 1.768t-1.768 0.732h-3.333v-1.667h3.333q0.345 0 0.589-0.244t0.244-0.589v-11.667q0-0.345-0.244-0.589t-0.589-0.244h-11.667q-0.345 0-0.589 0.244t-0.244 0.589v11.667q0 0.345 0.244 0.589t0.589 0.244h3.333v1.667h-3.333q-1.035 0-1.768-0.732t-0.732-1.768v-11.667q0-1.035 0.732-1.768t1.768-0.732zM10 5.833q0.352 0 0.592 0.241l3.333 3.333q0.241 0.241 0.241 0.592 0 0.345-0.244 0.589t-0.589 0.244q-0.339 0-0.592-0.241l-1.908-1.914v10.488q0 0.345-0.244 0.589t-0.589 0.244-0.589-0.244-0.244-0.589v-10.488l-1.908 1.914q-0.254 0.241-0.592 0.241-0.345 0-0.589-0.244t-0.244-0.589q0-0.339 0.241-0.592l3.333-3.333q0.241-0.241 0.592-0.241z"></path>
</svg>
