<?xml version="1.0" encoding="utf-8"?>
<!-- Generated by IcoMoon.io -->
<!DOCTYPE svg PUBLIC "-//W3C//DTD SVG 1.1//EN" "http://www.w3.org/Graphics/SVG/1.1/DTD/svg11.dtd">
<svg version="1.1" xmlns="http://www.w3.org/2000/svg" xmlns:xlink="http://www.w3.org/1999/xlink" width="18" height="18" viewBox="0 0 18 18">
<path fill="#444444" d="M15.75 0.75h-13.5c-1.241 0-2.25 1.009-2.25 2.25v8.25c0 1.241 1.009 2.25 2.25 2.25h4.5v1.5h-2.25c-0.414 0-0.75 0.336-0.75 0.75s0.336 0.75 0.75 0.75h9c0.414 0 0.75-0.336 0.75-0.75s-0.336-0.75-0.75-0.75h-2.25v-1.5h4.5c1.241 0 2.25-1.009 2.25-2.25v-8.25c0-1.241-1.009-2.25-2.25-2.25zM10.5 15h-3v-1.5h3v1.5zM16.5 11.25c0 0.413-0.337 0.75-0.75 0.75h-13.5c-0.413 0-0.75-0.337-0.75-0.75v-8.25c0-0.413 0.337-0.75 0.75-0.75h13.5c0.413 0 0.75 0.337 0.75 0.75v8.25z"></path>
<path fill="#444444" d="M15 3h-12c-0.413 0-0.75 0.337-0.75 0.75v6c0 0.413 0.337 0.75 0.75 0.75h12c0.413 0 0.75-0.338 0.75-0.75v-6c0-0.413-0.338-0.75-0.75-0.75zM15 9.75h-12v-6h12v6z"></path>
</svg>
