<?xml version="1.0" encoding="utf-8"?>
<!-- Generated by IcoMoon.io -->
<!DOCTYPE svg PUBLIC "-//W3C//DTD SVG 1.1//EN" "http://www.w3.org/Graphics/SVG/1.1/DTD/svg11.dtd">
<svg version="1.1" xmlns="http://www.w3.org/2000/svg" xmlns:xlink="http://www.w3.org/1999/xlink" width="18" height="18" viewBox="0 0 18 18">
<path fill="#444444" d="M9 5.25q0.311 0 0.53 0.22t0.22 0.53v2.25h2.25q0.311 0 0.53 0.22t0.22 0.53-0.22 0.53-0.53 0.22h-2.25v2.25q0 0.311-0.22 0.53t-0.53 0.22-0.53-0.22-0.22-0.53v-2.25h-2.25q-0.311 0-0.53-0.22t-0.22-0.53 0.22-0.53 0.53-0.22h2.25v-2.25q0-0.311 0.22-0.53t0.53-0.22zM1.5 12.75q0.311 0 0.53 0.22t0.22 0.53v1.5q0 0.311 0.22 0.53t0.53 0.22h1.5q0.311 0 0.53 0.22t0.22 0.53-0.22 0.53-0.53 0.22h-1.5q-0.932 0-1.591-0.659t-0.659-1.591v-1.5q0-0.311 0.22-0.53t0.53-0.22zM1.5 6.75q0.311 0 0.53 0.22t0.22 0.53v3q0 0.311-0.22 0.53t-0.53 0.22-0.53-0.22-0.22-0.53v-3q0-0.311 0.22-0.53t0.53-0.22zM7.5 15.75h3q0.311 0 0.53 0.22t0.22 0.53-0.22 0.53-0.53 0.22h-3q-0.311 0-0.53-0.22t-0.22-0.53 0.22-0.53 0.53-0.22zM3 0.75h1.5q0.311 0 0.53 0.22t0.22 0.53-0.22 0.53-0.53 0.22h-1.5q-0.311 0-0.53 0.22t-0.22 0.53v1.5q0 0.311-0.22 0.53t-0.53 0.22-0.53-0.22-0.22-0.53v-1.5q0-0.932 0.659-1.591t1.591-0.659zM16.5 12.75q0.311 0 0.53 0.22t0.22 0.53v1.5q0 0.932-0.659 1.591t-1.591 0.659h-1.5q-0.311 0-0.53-0.22t-0.22-0.53 0.22-0.53 0.53-0.22h1.5q0.311 0 0.53-0.22t0.22-0.53v-1.5q0-0.311 0.22-0.53t0.53-0.22zM16.5 6.75q0.311 0 0.53 0.22t0.22 0.53v3q0 0.311-0.22 0.53t-0.53 0.22-0.53-0.22-0.22-0.53v-3q0-0.311 0.22-0.53t0.53-0.22zM7.5 0.75h3q0.311 0 0.53 0.22t0.22 0.53-0.22 0.53-0.53 0.22h-3q-0.311 0-0.53-0.22t-0.22-0.53 0.22-0.53 0.53-0.22zM13.5 0.75h1.5q0.932 0 1.591 0.659t0.659 1.591v1.5q0 0.311-0.22 0.53t-0.53 0.22-0.53-0.22-0.22-0.53v-1.5q0-0.311-0.22-0.53t-0.53-0.22h-1.5q-0.311 0-0.53-0.22t-0.22-0.53 0.22-0.53 0.53-0.22z"></path>
</svg>
