<?xml version="1.0" encoding="utf-8"?>
<!-- Generated by IcoMoon.io -->
<!DOCTYPE svg PUBLIC "-//W3C//DTD SVG 1.1//EN" "http://www.w3.org/Graphics/SVG/1.1/DTD/svg11.dtd">
<svg version="1.1" xmlns="http://www.w3.org/2000/svg" xmlns:xlink="http://www.w3.org/1999/xlink" width="20" height="20" viewBox="0 0 20 20">
<path fill="#444444" d="M3.333 0.833h13.333q1.035 0 1.768 0.732t0.732 1.768v13.333q0 1.035-0.732 1.768t-1.768 0.732h-13.333q-1.035 0-1.768-0.732t-0.732-1.768v-13.333q0-1.035 0.732-1.768t1.768-0.732zM16.667 2.5h-13.333q-0.345 0-0.589 0.244t-0.244 0.589v13.333q0 0.345 0.244 0.589t0.589 0.244h13.333q0.345 0 0.589-0.244t0.244-0.589v-13.333q0-0.345-0.244-0.589t-0.589-0.244zM12.357 6.803q0.345 0 0.592 0.247t0.247 0.592-0.247 0.592l-1.771 1.764 1.771 1.764q0.247 0.247 0.247 0.592t-0.247 0.589-0.592 0.244-0.586-0.241l-1.771-1.771-1.771 1.771q-0.234 0.241-0.586 0.241-0.358 0-0.596-0.238t-0.238-0.596q0-0.352 0.241-0.592l1.771-1.764-1.771-1.764q-0.241-0.241-0.241-0.592 0-0.345 0.244-0.592t0.589-0.247q0.352 0 0.586 0.247l1.771 1.771 1.771-1.771q0.247-0.247 0.586-0.247z"></path>
</svg>
